Coordinates
version=1
nRows=8
nColumns=63
inDegrees=yes

Units are S.I. units (second, meters, Newtons, ...)
If the header above contains a line with 'inDegrees', this indicates whether rotational values are in degrees (yes) or radians (no).

endheader
time	pelvis_tilt	pelvis_list	pelvis_rotation	pelvis_tx	pelvis_ty	pelvis_tz	hip_flexion_r	hip_adduction_r	hip_rotation_r	knee_angle_r	knee_angle_r_beta	ankle_angle_r	subtalar_angle_r	mtp_angle_r	hip_flexion_l	hip_adduction_l	hip_rotation_l	knee_angle_l	knee_angle_l_beta	ankle_angle_l	subtalar_angle_l	mtp_angle_l	L5_S1_Flex_Ext	L5_S1_Lat_Bending	L5_S1_axial_rotation	L4_L5_Flex_Ext	L4_L5_Lat_Bending	L4_L5_axial_rotation	L3_L4_Flex_Ext	L3_L4_Lat_Bending	L3_L4_axial_rotation	L2_L3_Flex_Ext	L2_L3_Lat_Bending	L2_L3_axial_rotation	L1_L2_Flex_Ext	L1_L2_Lat_Bending	L1_L2_axial_rotation	L1_T12_Flex_Ext	L1_T12_Lat_Bending	L1_T12_axial_rotation	Abs_r3	Abs_r2	Abs_r1	Abs_t1	Abs_t2	neck_flexion	neck_bending	neck_rotation	arm_flex_r	arm_add_r	arm_rot_r	elbow_flex_r	pro_sup_r	wrist_flex_r	wrist_dev_r	arm_flex_l	arm_add_l	arm_rot_l	elbow_flex_l	pro_sup_l	wrist_flex_l	wrist_dev_l
1.666667	-4.862052	-1.718504	72.229181	0.277276	0.444564	0.863275	-1.462203	-2.788138	-11.122163	14.836346	0.258943	31.038257	15.934943	0.000000	-4.061108	0.311475	-18.134368	10.984940	0.191723	32.645183	17.963968	0.000000	-0.462955	-0.391210	-0.762753	-0.859754	-0.520309	-0.810426	-0.760589	-0.951187	-0.810426	-0.529112	-0.951187	-0.667409	-0.429900	-0.797754	-0.619737	-0.264533	-0.605984	-0.572065	-3.306844	-4.425440	-4.242206	0.000000	0.000000	9.405335	2.141093	8.135148	4.710058	-20.626247	82.199390	23.724099	54.151758	-9.078204	-6.066134	-9.743433	-21.743868	26.545190	26.871128	80.767268	-17.427105	-0.995451
1.683333	-4.851087	-1.565483	72.283952	0.278012	0.444184	0.862162	-1.413327	-2.909018	-12.194940	15.534777	0.271133	31.779511	17.263543	0.000000	-4.315568	0.306748	-18.329662	10.944804	0.191023	32.804021	18.088907	0.000000	-0.477788	-0.397281	-0.739825	-0.887300	-0.528384	-0.786064	-0.784958	-0.965950	-0.786064	-0.546064	-0.965950	-0.647347	-0.443674	-0.810136	-0.601107	-0.273008	-0.615389	-0.554868	-3.412791	-4.494124	-4.114682	0.000000	0.000000	9.203049	1.915935	7.890137	4.599274	-20.662574	83.947638	23.246455	54.863313	-9.812673	-5.839642	-9.949481	-21.813418	29.051996	26.087880	80.947034	-18.837168	-1.836292
1.700000	-4.825528	-1.495044	72.430973	0.278595	0.444023	0.861218	-1.417179	-2.945617	-13.023868	15.910181	0.277685	32.252717	18.182514	0.000000	-4.495669	0.273832	-18.319363	10.843476	0.189254	32.859657	18.118045	0.000000	-0.486121	-0.396977	-0.731086	-0.902774	-0.527980	-0.776779	-0.798647	-0.965210	-0.776779	-0.555587	-0.965210	-0.639701	-0.451412	-0.809516	-0.594008	-0.277769	-0.614918	-0.548315	-3.472310	-4.490686	-4.066083	0.000000	0.000000	9.141424	1.631204	7.552335	4.385525	-20.669288	84.939073	22.918486	55.677255	-10.568129	-5.723992	-10.239254	-21.865226	31.422355	25.561105	81.134031	-20.064572	-2.906827
1.716667	-4.790262	-1.508600	72.636205	0.279054	0.444084	0.860529	-1.476871	-2.885383	-13.402197	15.934101	0.278103	32.412041	18.481163	0.000000	-4.595088	0.217312	-18.142994	10.681574	0.186429	32.800042	18.075006	0.000000	-0.488095	-0.391244	-0.741701	-0.906442	-0.520355	-0.788057	-0.801892	-0.951271	-0.788057	-0.557844	-0.951271	-0.648988	-0.453245	-0.797825	-0.602632	-0.278898	-0.606037	-0.556276	-3.486417	-4.425833	-4.125118	0.000000	0.000000	9.226803	1.304292	7.171175	4.207595	-20.689814	85.659336	22.705119	55.976272	-11.326626	-5.837088	-10.670345	-21.893896	33.437986	25.298552	81.443710	-21.035828	-4.191981
1.733333	-4.755063	-1.619294	72.880434	0.279398	0.444325	0.860184	-1.571050	-2.727094	-13.283552	15.608821	0.272425	32.249439	18.104018	0.000000	-4.583922	0.141100	-17.806249	10.481231	0.182932	32.636307	17.943101	0.000000	-0.482815	-0.380831	-0.768815	-0.896636	-0.506506	-0.816866	-0.793217	-0.925954	-0.816866	-0.551809	-0.925954	-0.672713	-0.448342	-0.776592	-0.624662	-0.275880	-0.589908	-0.576612	-3.448699	-4.308042	-4.275920	0.000000	0.000000	9.477609	0.955583	6.783926	3.972027	-20.713319	85.589370	22.692002	56.298981	-11.963813	-5.999139	-11.225697	-21.893644	35.023857	25.282398	81.874789	-21.656072	-5.626615
1.750000	-4.725554	-1.825249	73.138102	0.279645	0.444722	0.860275	-1.678199	-2.481572	-12.781507	14.968944	0.261257	31.823271	17.249246	0.000000	-4.451225	0.043371	-17.425648	10.266915	0.179191	32.384249	17.816294	0.000000	-0.471261	-0.367325	-0.809634	-0.875179	-0.488542	-0.860237	-0.774235	-0.893114	-0.860237	-0.538604	-0.893114	-0.708430	-0.437613	-0.749049	-0.657828	-0.269279	-0.568987	-0.607226	-3.366170	-4.155255	-4.502944	0.000000	0.000000	9.900317	0.610403	6.386900	3.709476	-20.756975	84.793678	22.893403	56.404938	-12.319963	-6.186888	-11.878909	-21.866182	36.167116	25.492632	82.257965	-21.948690	-7.173788
1.766667	-4.721141	-2.138282	73.396318	0.279764	0.445213	0.860897	-1.697533	-2.212916	-12.499459	14.194370	0.247738	31.363955	16.729524	0.000000	-4.163462	-0.064942	-17.044812	10.067925	0.175718	32.053783	17.707311	0.000000	-0.452195	-0.353274	-0.861545	-0.839772	-0.469854	-0.915392	-0.742912	-0.858949	-0.915392	-0.516814	-0.858949	-0.753852	-0.419909	-0.720395	-0.700005	-0.258385	-0.547221	-0.646159	-3.229987	-3.996301	-4.791655	0.000000	0.000000	10.498607	0.299924	5.960964	3.469235	-20.823460	83.539772	23.296902	55.967535	-12.443301	-6.465591	-12.617372	-21.825835	36.750782	25.985354	82.558539	-21.849327	-8.558459
1.783333	-4.740262	-2.532625	73.691450	0.279755	0.445761	0.861966	-1.671604	-1.922360	-12.202197	13.268768	0.231584	30.801191	16.156928	0.000000	-3.744213	-0.180804	-16.623959	9.898985	0.172770	31.653960	17.594684	0.000000	-0.427913	-0.340070	-0.940526	-0.794678	-0.452293	-0.999309	-0.703019	-0.826846	-0.999309	-0.489062	-0.826846	-0.822960	-0.397360	-0.693471	-0.764178	-0.244510	-0.526769	-0.705395	-3.056543	-3.846940	-5.230924	0.000000	0.000000	11.229502	0.080195	5.622215	3.376232	-20.962903	82.270349	23.913256	54.825026	-12.330866	-6.804478	-13.478428	-21.750103	36.659541	26.728287	82.554767	-21.307826	-9.880601
